<mxfile host="app.diagrams.net" modified="2023-12-19T02:44:11.495Z" agent="Mozilla/5.0 (Windows NT 10.0; Win64; x64) AppleWebKit/537.36 (KHTML, like Gecko) Chrome/120.0.0.0 Safari/537.36" etag="N6Rt-9wepUgrl7FWrRu2" version="22.1.11" type="device">
  <diagram name="Page-1" id="6XvgBWw5A2XVLL4-4LbZ">
    <mxGraphModel dx="1434" dy="818" grid="1" gridSize="10" guides="1" tooltips="1" connect="1" arrows="1" fold="1" page="1" pageScale="1" pageWidth="850" pageHeight="1100" background="#ffffff" math="0" shadow="0">
      <root>
        <mxCell id="0" />
        <mxCell id="1" parent="0" />
        <mxCell id="VuUXiTcxwUd7dLoqqsUm-4" value="" style="rounded=1;whiteSpace=wrap;html=1;fillColor=none;dashed=1;strokeColor=#d6b656;strokeWidth=3;" parent="1" vertex="1">
          <mxGeometry x="20" y="270" width="205.41" height="140" as="geometry" />
        </mxCell>
        <mxCell id="WisFusqYen7EH3n3d4VQ-28" value="" style="rounded=1;whiteSpace=wrap;html=1;fillColor=none;dashed=1;strokeColor=#9673a6;strokeWidth=3;" parent="1" vertex="1">
          <mxGeometry x="250" y="50" width="570" height="330" as="geometry" />
        </mxCell>
        <mxCell id="WisFusqYen7EH3n3d4VQ-10" value="" style="shape=flexArrow;endArrow=classic;startArrow=classic;html=1;rounded=0;fillColor=#d5e8d4;strokeColor=#82b366;exitX=1;exitY=0;exitDx=0;exitDy=0;" parent="1" source="WisFusqYen7EH3n3d4VQ-2" target="WisFusqYen7EH3n3d4VQ-11" edge="1">
          <mxGeometry width="100" height="100" relative="1" as="geometry">
            <mxPoint x="306.0899999999999" y="110" as="sourcePoint" />
            <mxPoint x="360" y="580" as="targetPoint" />
            <Array as="points">
              <mxPoint x="210" y="100" />
            </Array>
          </mxGeometry>
        </mxCell>
        <mxCell id="WisFusqYen7EH3n3d4VQ-13" value="3) Create access token. The access&lt;br&gt;token refers to the logon session" style="edgeLabel;html=1;align=center;verticalAlign=middle;resizable=0;points=[];labelBackgroundColor=none;" parent="WisFusqYen7EH3n3d4VQ-10" vertex="1" connectable="0">
          <mxGeometry x="0.0411" y="-2" relative="1" as="geometry">
            <mxPoint x="48" y="-2" as="offset" />
          </mxGeometry>
        </mxCell>
        <mxCell id="WisFusqYen7EH3n3d4VQ-30" value="" style="shape=flexArrow;endArrow=classic;html=1;rounded=0;exitX=0.5;exitY=1;exitDx=0;exitDy=0;entryX=0.5;entryY=0;entryDx=0;entryDy=0;entryPerimeter=0;fillColor=#d5e8d4;strokeColor=#82b366;" parent="1" source="WisFusqYen7EH3n3d4VQ-16" target="WisFusqYen7EH3n3d4VQ-29" edge="1">
          <mxGeometry width="50" height="50" relative="1" as="geometry">
            <mxPoint x="420" y="450" as="sourcePoint" />
            <mxPoint x="470" y="400" as="targetPoint" />
          </mxGeometry>
        </mxCell>
        <mxCell id="WisFusqYen7EH3n3d4VQ-34" value="Tries to execute" style="edgeLabel;html=1;align=center;verticalAlign=middle;resizable=0;points=[];labelBackgroundColor=none;" parent="WisFusqYen7EH3n3d4VQ-30" vertex="1" connectable="0">
          <mxGeometry x="-0.6052" y="2" relative="1" as="geometry">
            <mxPoint x="-2" y="32" as="offset" />
          </mxGeometry>
        </mxCell>
        <mxCell id="WisFusqYen7EH3n3d4VQ-31" value="Security&lt;br&gt;Descriptor" style="rounded=1;whiteSpace=wrap;html=1;" parent="1" vertex="1">
          <mxGeometry x="381" y="410" width="80" height="50" as="geometry" />
        </mxCell>
        <mxCell id="WisFusqYen7EH3n3d4VQ-3" value="" style="image;sketch=0;aspect=fixed;html=1;points=[];align=center;fontSize=12;image=img/lib/mscae/VirtualMachineWindows.svg;" parent="1" vertex="1">
          <mxGeometry x="46.620000000000005" y="10" width="152.17" height="140" as="geometry" />
        </mxCell>
        <mxCell id="WisFusqYen7EH3n3d4VQ-5" value="" style="shape=flexArrow;endArrow=classic;html=1;rounded=0;exitX=0.506;exitY=0.993;exitDx=0;exitDy=0;exitPerimeter=0;entryX=0.5;entryY=0;entryDx=0;entryDy=0;fillColor=#d5e8d4;strokeColor=#82b366;" parent="1" source="WisFusqYen7EH3n3d4VQ-3" target="VuUXiTcxwUd7dLoqqsUm-4" edge="1">
          <mxGeometry width="50" height="50" relative="1" as="geometry">
            <mxPoint x="245.59" y="180" as="sourcePoint" />
            <mxPoint x="238.04500000000007" y="270" as="targetPoint" />
          </mxGeometry>
        </mxCell>
        <mxCell id="WisFusqYen7EH3n3d4VQ-6" value="1) Successful authentication creates&lt;br&gt;a new interactive logon session&lt;br&gt;for Domain\User01" style="edgeLabel;html=1;align=center;verticalAlign=middle;resizable=0;points=[];labelBackgroundColor=none;" parent="WisFusqYen7EH3n3d4VQ-5" vertex="1" connectable="0">
          <mxGeometry x="-0.3865" relative="1" as="geometry">
            <mxPoint as="offset" />
          </mxGeometry>
        </mxCell>
        <mxCell id="WisFusqYen7EH3n3d4VQ-11" value="Access Token" style="ellipse;whiteSpace=wrap;html=1;fillColor=#dae8fc;strokeColor=#6c8ebf;" parent="1" vertex="1">
          <mxGeometry x="480" y="60" width="90" height="60" as="geometry" />
        </mxCell>
        <mxCell id="WisFusqYen7EH3n3d4VQ-15" value="" style="shape=flexArrow;endArrow=classic;html=1;rounded=0;entryX=0.5;entryY=1;entryDx=0;entryDy=0;exitX=1;exitY=0;exitDx=0;exitDy=0;fillColor=#d5e8d4;strokeColor=#82b366;" parent="1" source="WisFusqYen7EH3n3d4VQ-14" target="WisFusqYen7EH3n3d4VQ-11" edge="1">
          <mxGeometry width="50" height="50" relative="1" as="geometry">
            <mxPoint x="420" y="230" as="sourcePoint" />
            <mxPoint x="470" y="180" as="targetPoint" />
          </mxGeometry>
        </mxCell>
        <mxCell id="WisFusqYen7EH3n3d4VQ-14" value="explorer.exe" style="rounded=1;whiteSpace=wrap;html=1;fillColor=#ffe6cc;strokeColor=#d79b00;" parent="1" vertex="1">
          <mxGeometry x="330" y="150" width="90" height="30" as="geometry" />
        </mxCell>
        <mxCell id="WisFusqYen7EH3n3d4VQ-19" value="" style="shape=flexArrow;endArrow=classic;html=1;rounded=0;entryX=0.5;entryY=1;entryDx=0;entryDy=0;exitX=1;exitY=0;exitDx=0;exitDy=0;fillColor=#d5e8d4;strokeColor=#82b366;" parent="1" source="WisFusqYen7EH3n3d4VQ-17" target="WisFusqYen7EH3n3d4VQ-11" edge="1">
          <mxGeometry width="50" height="50" relative="1" as="geometry">
            <mxPoint x="355" y="215" as="sourcePoint" />
            <mxPoint x="513" y="131" as="targetPoint" />
          </mxGeometry>
        </mxCell>
        <mxCell id="WisFusqYen7EH3n3d4VQ-16" value="pwsh.exe" style="rounded=1;whiteSpace=wrap;html=1;fillColor=#ffe6cc;strokeColor=#d79b00;" parent="1" vertex="1">
          <mxGeometry x="330" y="310" width="90" height="30" as="geometry" />
        </mxCell>
        <mxCell id="WisFusqYen7EH3n3d4VQ-20" value="4) All processes created within the user&#39;s session are, by&amp;nbsp;&lt;br&gt;default,given a copy of the newly created access token" style="text;html=1;align=center;verticalAlign=middle;resizable=0;points=[];autosize=1;strokeColor=none;fillColor=none;" parent="1" vertex="1">
          <mxGeometry x="485" y="225" width="330" height="40" as="geometry" />
        </mxCell>
        <mxCell id="WisFusqYen7EH3n3d4VQ-17" value="outlook.exe" style="rounded=1;whiteSpace=wrap;html=1;fillColor=#ffe6cc;strokeColor=#d79b00;" parent="1" vertex="1">
          <mxGeometry x="330" y="230" width="90" height="30" as="geometry" />
        </mxCell>
        <mxCell id="WisFusqYen7EH3n3d4VQ-18" value="" style="shape=flexArrow;endArrow=classic;html=1;rounded=0;exitX=1;exitY=0;exitDx=0;exitDy=0;fillColor=#d5e8d4;strokeColor=#82b366;" parent="1" source="WisFusqYen7EH3n3d4VQ-16" edge="1">
          <mxGeometry width="50" height="50" relative="1" as="geometry">
            <mxPoint x="345" y="205" as="sourcePoint" />
            <mxPoint x="520" y="120" as="targetPoint" />
          </mxGeometry>
        </mxCell>
        <mxCell id="WisFusqYen7EH3n3d4VQ-23" value="" style="curved=1;endArrow=none;html=1;rounded=0;endFill=0;entryX=0;entryY=1;entryDx=0;entryDy=0;exitX=0;exitY=0;exitDx=0;exitDy=0;startArrow=classic;startFill=1;" parent="1" source="WisFusqYen7EH3n3d4VQ-17" target="WisFusqYen7EH3n3d4VQ-14" edge="1">
          <mxGeometry width="50" height="50" relative="1" as="geometry">
            <mxPoint x="420" y="230" as="sourcePoint" />
            <mxPoint x="470" y="180" as="targetPoint" />
            <Array as="points">
              <mxPoint x="250" y="190" />
            </Array>
          </mxGeometry>
        </mxCell>
        <mxCell id="WisFusqYen7EH3n3d4VQ-24" value="launches" style="edgeLabel;html=1;align=center;verticalAlign=middle;resizable=0;points=[];labelBackgroundColor=none;" parent="WisFusqYen7EH3n3d4VQ-23" vertex="1" connectable="0">
          <mxGeometry x="0.1149" y="-2" relative="1" as="geometry">
            <mxPoint x="64" y="8" as="offset" />
          </mxGeometry>
        </mxCell>
        <mxCell id="WisFusqYen7EH3n3d4VQ-26" value="" style="curved=1;endArrow=none;html=1;rounded=0;endFill=0;entryX=0;entryY=0.5;entryDx=0;entryDy=0;exitX=0;exitY=0;exitDx=0;exitDy=0;startArrow=classic;startFill=1;" parent="1" source="WisFusqYen7EH3n3d4VQ-16" target="WisFusqYen7EH3n3d4VQ-14" edge="1">
          <mxGeometry width="50" height="50" relative="1" as="geometry">
            <mxPoint x="340" y="460" as="sourcePoint" />
            <mxPoint x="340" y="410" as="targetPoint" />
            <Array as="points">
              <mxPoint x="200" y="210" />
            </Array>
          </mxGeometry>
        </mxCell>
        <mxCell id="WisFusqYen7EH3n3d4VQ-27" value="launches" style="edgeLabel;html=1;align=center;verticalAlign=middle;resizable=0;points=[];labelBackgroundColor=none;" parent="WisFusqYen7EH3n3d4VQ-26" vertex="1" connectable="0">
          <mxGeometry x="0.1149" y="-2" relative="1" as="geometry">
            <mxPoint x="126" y="70" as="offset" />
          </mxGeometry>
        </mxCell>
        <mxCell id="WisFusqYen7EH3n3d4VQ-29" value="Add-MoneyToMyBankAccount.ps1" style="sketch=0;aspect=fixed;pointerEvents=1;shadow=0;dashed=0;html=1;strokeColor=none;labelPosition=center;verticalLabelPosition=bottom;verticalAlign=top;align=center;fillColor=#00188D;shape=mxgraph.azure.powershell_file;labelBackgroundColor=none;" parent="1" vertex="1">
          <mxGeometry x="351" y="450" width="47" height="50" as="geometry" />
        </mxCell>
        <mxCell id="WisFusqYen7EH3n3d4VQ-33" value="5) When a process tries to access a securable object, its access token&lt;br&gt;is compared against the security descriptor applied to the object" style="text;html=1;align=center;verticalAlign=middle;resizable=0;points=[];autosize=1;strokeColor=none;fillColor=none;" parent="1" vertex="1">
          <mxGeometry x="260" y="340" width="400" height="40" as="geometry" />
        </mxCell>
        <mxCell id="WisFusqYen7EH3n3d4VQ-35" value="Interactive User&amp;nbsp;Session (Winsta0)" style="text;html=1;align=center;verticalAlign=middle;resizable=0;points=[];autosize=1;strokeColor=none;fillColor=none;fontColor=#9577a3;" parent="1" vertex="1">
          <mxGeometry x="610" y="20" width="210" height="30" as="geometry" />
        </mxCell>
        <mxCell id="VuUXiTcxwUd7dLoqqsUm-1" value="2) Cache credentials (depending on &lt;br&gt;logon type). Credentials remain&lt;br&gt;availabe for later reuse" style="edgeLabel;html=1;align=center;verticalAlign=middle;resizable=0;points=[];labelBackgroundColor=none;" parent="1" vertex="1" connectable="0">
          <mxGeometry x="122.70330405094803" y="375.9966292726897" as="geometry" />
        </mxCell>
        <mxCell id="WisFusqYen7EH3n3d4VQ-2" value="Logon Session&lt;br&gt;(Domain\User01)" style="ellipse;whiteSpace=wrap;html=1;fillColor=#dae8fc;strokeColor=#6c8ebf;" parent="1" vertex="1">
          <mxGeometry x="117" y="280" width="100" height="70" as="geometry" />
        </mxCell>
        <mxCell id="VuUXiTcxwUd7dLoqqsUm-5" value="Local Security&lt;br&gt;Authority" style="text;html=1;align=center;verticalAlign=middle;resizable=0;points=[];autosize=1;strokeColor=none;fillColor=none;fontColor=#6c5100;" parent="1" vertex="1">
          <mxGeometry x="17.000000000000043" y="230" width="100" height="40" as="geometry" />
        </mxCell>
      </root>
    </mxGraphModel>
  </diagram>
</mxfile>
